<?xml version="1.0" encoding="UTF-8"?>
<svg width="81px" height="81px" viewBox="0 0 81 81" version="1.1" xmlns="http://www.w3.org/2000/svg" xmlns:xlink="http://www.w3.org/1999/xlink">
    <!-- Generator: Sketch Beta 48 (47110) - http://www.bohemiancoding.com/sketch -->
    <title>icon_fast_team</title>
    <desc>Created with Sketch Beta.</desc>
    <defs>
        <polygon id="path-1" points="0 81 81 81 81 0 0 0"></polygon>
    </defs>
    <g id="outstuff" stroke="none" stroke-width="1" fill="none" fill-rule="evenodd" transform="translate(-173.000000, -2391.000000)">
        <g id="4" transform="translate(169.000000, 2324.000000)">
            <g id="fast-team" transform="translate(0.000000, 67.000000)">
                <g id="icon_fast_team" transform="translate(4.000000, 0.000000)">
                    <polygon id="Fill-1" fill="#231F20" points="7.83870968 62.7096774 10.4516129 62.7096774 10.4516129 0 7.83870968 0"></polygon>
                    <polygon id="Fill-2" fill="#231F20" points="70.5483871 43.1131645 70.5483871 78.3873581 10.4516129 78.3873581 10.4516129 65.3228419 7.83870968 65.3228419 7.83870968 78.3873581 0 78.3873581 0 81.0002613 7.83870968 81.0002613 10.4516129 81.0002613 70.5483871 81.0002613 73.1612903 81.0002613 81 81.0002613 81 78.3873581 73.1612903 78.3873581 73.1612903 43.1131645"></polygon>
                    <polygon id="Fill-3" fill="#231F20" points="70.5483871 40.5 73.1612903 40.5 73.1612903 37.8870968 70.5483871 37.8870968"></polygon>
                    <polygon id="Fill-4" fill="#231F20" points="70.5483871 35.2741935 73.1612903 35.2741935 73.1612903 0 70.5483871 0"></polygon>
                    <polygon id="Fill-5" fill="#231F20" points="0 30.0483871 2.61290323 30.0483871 2.61290323 27.4341774 0 27.4341774"></polygon>
                    <polygon id="Fill-6" fill="#231F20" points="78.3870968 24.8225806 81 24.8225806 81 22.2096774 78.3870968 22.2096774"></polygon>
                    <polygon id="Fill-7" fill="#231F20" points="2.61290323 45.7258065 5.22580645 45.7258065 5.22580645 43.1129032 2.61290323 43.1129032"></polygon>
                    <g id="Group-29">
                        <path d="M40.5,23.516129 C43.3820323,23.516129 45.7258065,21.1723548 45.7258065,18.2903226 C45.7258065,15.4082903 43.3820323,13.0645161 40.5,13.0645161 C37.6179677,13.0645161 35.2741935,15.4082903 35.2741935,18.2903226 C35.2741935,21.1723548 37.6179677,23.516129 40.5,23.516129 Z M48.3387097,18.2903226 C48.3387097,22.613371 44.8230484,26.1290323 40.5,26.1290323 C36.1769516,26.1290323 32.6612903,22.613371 32.6612903,18.2903226 C32.6612903,13.9672742 36.1769516,10.4516129 40.5,10.4516129 C44.8230484,10.4516129 48.3387097,13.9672742 48.3387097,18.2903226 Z" id="Fill-8" fill="#231F20"></path>
                        <path d="M29.7988548,36.8850484 L31.9662581,37.4272258 L30.4729839,47.8788387 C30.4194194,48.2550968 30.2169194,48.5790968 29.9007581,48.7907419 C29.5845968,49.0023871 29.2083387,49.0703226 28.8399194,48.9762581 C28.1631774,48.8077258 27.7320484,48.1375161 27.8574677,47.451629 L29.7988548,36.8850484 Z M33.9677419,28.7419355 L35.9274194,28.7419355 L39.1935484,33.0963387 L39.1935484,43.1129032 L35.2741935,43.1129032 L35.2741935,32.6612903 L32.6743548,32.4757742 L32.3385968,34.8260806 L30.2730968,34.3100323 L30.7891452,31.4998548 C31.0125484,29.9281935 32.3790968,28.7419355 33.9677419,28.7419355 Z M41.8064516,28.7419355 L40.5,30.4834355 L39.1935484,28.7419355 L41.8064516,28.7419355 Z M50.22,31.5508065 L50.7269032,34.3100323 L48.6614032,34.8260806 L48.3256452,32.4757742 L45.7258065,32.6612903 L45.7271129,43.1129032 L41.8064516,43.1129032 L41.8064516,33.0963387 L45.0725806,28.7419355 L47.0322581,28.7419355 C48.6209032,28.7419355 49.9874516,29.9281935 50.22,31.5508065 Z M53.1412258,47.451629 C53.2666452,48.1375161 52.8355161,48.8077258 52.1587742,48.9762581 C51.7916613,49.0703226 51.4140968,49.0023871 51.0979355,48.7907419 C50.7817742,48.5790968 50.5805806,48.2550968 50.5257097,47.8788387 L49.0324355,37.4272258 L51.1998387,36.8850484 L53.1412258,47.451629 Z M44.3357419,70.5483871 L44.1619839,67.9354839 L46.7683548,67.9354839 L46.9421129,70.5483871 L44.3357419,70.5483871 Z M37.9707097,50.9516129 L37.0130806,65.3225806 L34.4040968,65.3225806 L35.2741935,52.2580645 L35.2741935,45.7258065 L45.7271129,45.7258065 L45.7284194,52.3442903 L46.5932903,65.3225806 L43.9869194,65.3225806 L43.0292903,50.9516129 L37.9707097,50.9516129 Z M34.0565806,70.5483871 L34.2303387,67.9354839 L36.8380161,67.9354839 L36.6642581,70.5483871 L34.0565806,70.5483871 Z M28.2089032,51.5120806 C29.2919516,51.7838226 30.4364032,51.5800161 31.3587581,50.9594516 C31.9166129,50.5845 32.3634194,50.0775968 32.6639032,49.491 L32.6639032,52.1705323 L31.2646935,73.1612903 L39.1099355,73.1612903 L40.4163871,53.5645161 L40.5849194,53.5645161 L41.891371,73.1612903 L49.7366129,73.1612903 L48.3387097,52.2580645 L48.3387097,49.4962258 C48.6391935,50.0802097 49.0846935,50.5858065 49.6412419,50.9594516 C50.5622903,51.5787097 51.7080484,51.7812097 52.7910968,51.5120806 C54.8017258,51.0090968 56.0846613,49.019371 55.7097097,46.9813065 L52.797629,31.1314355 C52.392629,28.2794516 49.9129839,26.1290323 47.0322581,26.1290323 L40.5,26.1290323 L33.9677419,26.1290323 C31.0870161,26.1290323 28.607371,28.2794516 28.2102097,31.0791774 L25.2902903,46.9813065 C24.9153387,49.019371 26.1982742,51.0090968 28.2089032,51.5120806 Z" id="Fill-10" fill="#231F20"></path>
                        <mask id="mask-2" fill="white">
                            <use xlink:href="#path-1"></use>
                        </mask>
                        <g id="Clip-13"></g>
                        <polygon id="Fill-12" fill="#231F20" mask="url(#mask-2)" points="18.2903226 40.5 20.9032258 40.5 20.9032258 0 18.2903226 0"></polygon>
                        <polygon id="Fill-14" fill="#231F20" mask="url(#mask-2)" points="18.2903226 45.7258065 20.9032258 45.7258065 20.9032258 43.1129032 18.2903226 43.1129032"></polygon>
                        <polygon id="Fill-15" fill="#231F20" mask="url(#mask-2)" points="60.0967742 65.3225806 62.7096774 65.3225806 62.7096774 35.2741935 60.0967742 35.2741935"></polygon>
                        <polygon id="Fill-16" fill="#231F20" mask="url(#mask-2)" points="60.0967742 70.5483871 62.7096774 70.5483871 62.7096774 67.9354839 60.0967742 67.9354839"></polygon>
                        <polygon id="Fill-17" fill="#231F20" mask="url(#mask-2)" points="49.6451613 11.7580645 52.2580645 11.7580645 52.2580645 0 49.6451613 0"></polygon>
                        <polygon id="Fill-18" fill="#231F20" mask="url(#mask-2)" points="49.6451613 16.983871 52.2580645 16.983871 52.2580645 14.3709677 49.6451613 14.3709677"></polygon>
                        <polygon id="Fill-19" fill="#231F20" mask="url(#mask-2)" points="20.9032258 70.5483871 23.516129 70.5483871 23.516129 54.8709677 20.9032258 54.8709677"></polygon>
                        <polygon id="Fill-20" fill="#231F20" mask="url(#mask-2)" points="20.9032258 75.7741935 23.516129 75.7741935 23.516129 73.1612903 20.9032258 73.1612903"></polygon>
                        <polygon id="Fill-21" fill="#231F20" mask="url(#mask-2)" points="28.7419355 22.2096774 31.3548387 22.2096774 31.3548387 6.53225806 28.7419355 6.53225806"></polygon>
                        <polygon id="Fill-22" fill="#231F20" mask="url(#mask-2)" points="52.2580645 75.7741935 54.8709677 75.7741935 54.8709677 67.9354839 52.2580645 67.9354839"></polygon>
                        <polygon id="Fill-23" fill="#231F20" mask="url(#mask-2)" points="62.7096774 14.3709677 65.3225806 14.3709677 65.3225806 2.61290323 62.7096774 2.61290323"></polygon>
                        <polygon id="Fill-24" fill="#231F20" mask="url(#mask-2)" points="62.7096774 19.5967742 65.3225806 19.5967742 65.3225806 16.983871 62.7096774 16.983871"></polygon>
                        <polygon id="Fill-25" fill="#231F20" mask="url(#mask-2)" points="2.61290323 65.3225806 5.22580645 65.3225806 5.22580645 62.7096774 2.61290323 62.7096774"></polygon>
                        <polygon id="Fill-26" fill="#231F20" mask="url(#mask-2)" points="13.0645161 67.9354839 15.6774194 67.9354839 15.6774194 65.3225806 13.0645161 65.3225806"></polygon>
                        <polygon id="Fill-27" fill="#231F20" mask="url(#mask-2)" points="75.7741935 48.3387097 78.3870968 48.3387097 78.3870968 45.7258065 75.7741935 45.7258065"></polygon>
                        <polygon id="Fill-28" fill="#231F20" mask="url(#mask-2)" points="78.3870968 65.3225806 81 65.3225806 81 62.7096774 78.3870968 62.7096774"></polygon>
                    </g>
                </g>
            </g>
        </g>
    </g>
</svg>