<?xml version="1.0" encoding="UTF-8"?>
<svg width="81px" height="81px" viewBox="0 0 81 81" version="1.1" xmlns="http://www.w3.org/2000/svg" xmlns:xlink="http://www.w3.org/1999/xlink">
    <!-- Generator: Sketch Beta 48 (47110) - http://www.bohemiancoding.com/sketch -->
    <title>icon_resource</title>
    <desc>Created with Sketch Beta.</desc>
    <defs>
        <polygon id="path-1" points="0 81 81 81 81 0 0 0"></polygon>
    </defs>
    <g id="outstuff" stroke="none" stroke-width="1" fill="none" fill-rule="evenodd" transform="translate(-573.000000, -2414.000000)">
        <g id="4" transform="translate(169.000000, 2324.000000)">
            <g id="resource" transform="translate(400.000000, 90.000000)">
                <g id="icon_resource" transform="translate(4.000000, 0.000000)">
                    <path d="M74.1515806,78.3870968 C76.4875161,78.3870968 78.3870968,76.4875161 78.3870968,74.1515806 C78.3870968,73.0201935 77.9468226,71.9554355 77.1472742,71.1558871 L64.6693548,58.6779677 L58.6779677,64.6693548 L71.1558871,77.1472742 C71.9554355,77.9468226 73.0201935,78.3870968 74.1515806,78.3870968 Z M54.7795161,60.7709032 L56.8306452,62.8220323 L62.8220323,56.8306452 L60.7709032,54.7795161 C59.13,57.1023871 57.1023871,59.13 54.7795161,60.7709032 Z M18.5542258,43.74 C20.1311129,54.4529032 29.3559677,62.7096774 40.5,62.7096774 C52.7466774,62.7096774 62.7096774,52.7466774 62.7096774,40.5 C62.7096774,40.2870484 62.6835484,40.0819355 62.6770161,39.8702903 L60.0863226,40.3014194 C60.087629,40.3680484 60.0967742,40.433371 60.0967742,40.5 C60.0967742,51.3056613 51.3056613,60.0967742 40.5,60.0967742 C30.6506613,60.0967742 22.4984032,52.7871774 21.1292419,43.3114839 L18.5542258,43.74 Z M37.26,18.5542258 C26.5470968,20.1311129 18.2903226,29.3559677 18.2903226,40.5 C18.2903226,40.7129516 18.3164516,40.9180645 18.3229839,41.1297097 L20.9136774,40.6985806 C20.912371,40.6319516 20.9032258,40.566629 20.9032258,40.5 C20.9032258,30.6506613 28.2128226,22.4997097 37.6885161,21.1292419 L37.26,18.5542258 Z M40.5,23.516129 C31.1353548,23.516129 23.516129,31.1353548 23.516129,40.5 C23.516129,49.8646452 31.1353548,57.483871 40.5,57.483871 C49.8646452,57.483871 57.483871,49.8646452 57.483871,40.5 C57.483871,31.1353548 49.8646452,23.516129 40.5,23.516129 Z M62.4457742,37.26 C60.8688871,26.5470968 51.6440323,18.2903226 40.5,18.2903226 C40.2870484,18.2903226 40.0819355,18.3164516 39.8702903,18.3229839 L40.3014194,20.9136774 C40.3680484,20.912371 40.433371,20.9032258 40.5,20.9032258 C50.3493387,20.9032258 58.5002903,28.214129 59.8707581,37.6885161 L62.4457742,37.26 Z M66.5166774,56.8306452 L78.9945968,69.3085645 C80.2879839,70.6019516 81,72.3225484 81,74.1515806 C81,77.9272258 77.9272258,81 74.1502742,81 C72.3212419,81 70.6006452,80.2879839 69.3072581,78.9945968 L56.8293387,66.5166774 L54.486871,68.8591452 L52.6395484,67.0118226 L54.9820161,64.6693548 L52.5167419,62.2040806 C48.9527419,64.1846613 44.8583226,65.3225806 40.5,65.3225806 C28.0821774,65.3225806 17.7951774,56.147371 15.9883548,44.2246935 C11.2067419,45.5102419 7.83870968,49.8254516 7.83870968,54.8709677 L5.22580645,54.8709677 C5.22580645,48.4811129 9.59458065,43.0462742 15.7335968,41.6026452 C15.7166129,41.2342258 15.6774194,40.8723387 15.6774194,40.5 C15.6774194,28.0821774 24.852629,17.7951774 36.7753065,15.9883548 C35.4897581,11.2067419 31.1745484,7.83870968 26.1290323,7.83870968 L26.1290323,5.22580645 C32.5201935,5.22580645 37.9550323,9.59458065 39.3973548,15.7335968 C39.7657742,15.7166129 40.1276613,15.6774194 40.5,15.6774194 C52.9178226,15.6774194 63.2048226,24.852629 65.0116452,36.7753065 C69.7932581,35.4897581 73.1612903,31.1745484 73.1612903,26.1290323 L75.7741935,26.1290323 C75.7741935,32.5175806 71.4054194,37.9537258 65.2664032,39.3973548 C65.2833871,39.7657742 65.3225806,40.1276613 65.3225806,40.5 C65.3225806,44.8583226 64.1846613,48.9527419 62.2040806,52.5180484 L64.6693548,54.9833226 L67.0118226,52.6408548 L68.8591452,54.4881774 L66.5166774,56.8306452 Z" id="Fill-1" fill="#231F20"></path>
                    <path d="M69.2419355,2.61290323 C74.2835323,2.61290323 78.3870968,6.71516129 78.3870968,11.7580645 C78.3870968,14.2494677 77.3824355,16.509629 75.761129,18.1609839 C75.7167097,15.9648387 74.5944677,14.027371 72.8908548,12.8763871 C73.8615484,11.9252903 74.4677419,10.6070806 74.4677419,9.14516129 C74.4677419,6.26312903 72.1239677,3.91935484 69.2419355,3.91935484 C66.3599032,3.91935484 64.016129,6.26312903 64.016129,9.14516129 C64.016129,10.6070806 64.6223226,11.9252903 65.5930161,12.8750806 C63.8894032,14.027371 62.7671613,15.9635323 62.7227419,18.1596774 C61.1014355,16.509629 60.0967742,14.2494677 60.0967742,11.7580645 C60.0967742,6.71516129 64.2003387,2.61290323 69.2419355,2.61290323 M66.6290323,9.14516129 C66.6290323,7.70414516 67.8009194,6.53225806 69.2419355,6.53225806 C70.6829516,6.53225806 71.8548387,7.70414516 71.8548387,9.14516129 C71.8548387,10.5861774 70.6829516,11.7580645 69.2419355,11.7580645 C67.8009194,11.7580645 66.6290323,10.5861774 66.6290323,9.14516129 M65.3225806,20.0083065 L65.3225806,18.2903226 C65.3225806,16.1294516 67.0810645,14.3709677 69.2419355,14.3709677 C71.4028065,14.3709677 73.1612903,16.1294516 73.1612903,18.2903226 L73.1612903,20.0083065 C71.9711129,20.5753065 70.6450645,20.9032258 69.2419355,20.9032258 C67.8388065,20.9032258 66.5127581,20.5753065 65.3225806,20.0083065 M69.2419355,23.516129 C75.7258548,23.516129 81,18.2406774 81,11.7580645 C81,5.27545161 75.7258548,0 69.2419355,0 C62.7580161,0 57.483871,5.27545161 57.483871,11.7580645 C57.483871,18.2406774 62.7580161,23.516129 69.2419355,23.516129" id="Fill-3" fill="#231F20"></path>
                    <path d="M11.7580645,2.61290323 C16.7996613,2.61290323 20.9032258,6.71516129 20.9032258,11.7580645 C20.9032258,14.2494677 19.8985645,16.509629 18.2772581,18.1609839 C18.2328387,15.9648387 17.1105968,14.027371 15.4069839,12.8763871 C16.3776774,11.9252903 16.983871,10.6070806 16.983871,9.14516129 C16.983871,6.26312903 14.6400968,3.91935484 11.7580645,3.91935484 C8.87603226,3.91935484 6.53225806,6.26312903 6.53225806,9.14516129 C6.53225806,10.6070806 7.13845161,11.9252903 8.10914516,12.8750806 C6.40553226,14.027371 5.28329032,15.9635323 5.23887097,18.1596774 C3.61756452,16.509629 2.61290323,14.2494677 2.61290323,11.7580645 C2.61290323,6.71516129 6.71646774,2.61290323 11.7580645,2.61290323 M9.14516129,9.14516129 C9.14516129,7.70414516 10.3170484,6.53225806 11.7580645,6.53225806 C13.1990806,6.53225806 14.3709677,7.70414516 14.3709677,9.14516129 C14.3709677,10.5861774 13.1990806,11.7580645 11.7580645,11.7580645 C10.3170484,11.7580645 9.14516129,10.5861774 9.14516129,9.14516129 M7.83870968,20.0083065 L7.83870968,18.2903226 C7.83870968,16.1294516 9.59719355,14.3709677 11.7580645,14.3709677 C13.9189355,14.3709677 15.6774194,16.1294516 15.6774194,18.2903226 L15.6774194,20.0083065 C14.4872419,20.5753065 13.1611935,20.9032258 11.7580645,20.9032258 C10.3549355,20.9032258 9.0288871,20.5753065 7.83870968,20.0083065 M11.7580645,23.516129 C18.2419839,23.516129 23.516129,18.2406774 23.516129,11.7580645 C23.516129,5.27545161 18.2419839,0 11.7580645,0 C5.27414516,0 0,5.27545161 0,11.7580645 C0,18.2406774 5.27414516,23.516129 11.7580645,23.516129" id="Fill-5" fill="#231F20"></path>
                    <path d="M18.2772581,75.6435484 C18.2328387,73.4474032 17.1105968,71.5099355 15.4082903,70.3589516 C16.3776774,69.4104677 16.983871,68.0909516 16.983871,66.6290323 C16.983871,63.747 14.6400968,61.4032258 11.7580645,61.4032258 C8.87603226,61.4032258 6.53225806,63.747 6.53225806,66.6290323 C6.53225806,68.0909516 7.13845161,69.4104677 8.10783871,70.3589516 C6.40553226,71.5112419 5.28329032,73.4474032 5.23887097,75.6435484 C3.61756452,73.9921935 2.61290323,71.7333387 2.61290323,69.2419355 C2.61290323,64.2003387 6.71646774,60.0967742 11.7580645,60.0967742 C16.7996613,60.0967742 20.9032258,64.2003387 20.9032258,69.2419355 C20.9032258,71.7333387 19.8985645,73.9921935 18.2772581,75.6435484 M9.14516129,66.6290323 C9.14516129,65.1880161 10.3170484,64.016129 11.7580645,64.016129 C13.1990806,64.016129 14.3709677,65.1880161 14.3709677,66.6290323 C14.3709677,68.0700484 13.1990806,69.2419355 11.7580645,69.2419355 C10.3170484,69.2419355 9.14516129,68.0700484 9.14516129,66.6290323 M7.83870968,77.4921774 L7.83870968,75.7741935 C7.83870968,73.6133226 9.59719355,71.8548387 11.7580645,71.8548387 C13.9189355,71.8548387 15.6774194,73.6133226 15.6774194,75.7741935 L15.6774194,77.4921774 C14.4872419,78.0591774 13.1611935,78.3870968 11.7580645,78.3870968 C10.3549355,78.3870968 9.0288871,78.0591774 7.83870968,77.4921774 M11.7580645,57.483871 C5.27414516,57.483871 0,62.7580161 0,69.2419355 C0,75.7258548 5.27414516,81 11.7580645,81 C18.2419839,81 23.516129,75.7258548 23.516129,69.2419355 C23.516129,62.7580161 18.2419839,57.483871 11.7580645,57.483871" id="Fill-7" fill="#231F20"></path>
                    <mask id="mask-2" fill="white">
                        <use xlink:href="#path-1"></use>
                    </mask>
                    <g id="Clip-10"></g>
                </g>
            </g>
        </g>
    </g>
</svg>