<?xml version="1.0" encoding="UTF-8"?>
<svg width="81px" height="81px" viewBox="0 0 81 81" version="1.1" xmlns="http://www.w3.org/2000/svg" xmlns:xlink="http://www.w3.org/1999/xlink">
    <!-- Generator: Sketch Beta 48 (47110) - http://www.bohemiancoding.com/sketch -->
    <title>icon_rates</title>
    <desc>Created with Sketch Beta.</desc>
    <defs></defs>
    <g id="outstuff" stroke="none" stroke-width="1" fill="none" fill-rule="evenodd" transform="translate(-573.000000, -2734.000000)">
        <g id="4" transform="translate(169.000000, 2324.000000)">
            <g id="rates" transform="translate(400.000000, 405.000000)">
                <g id="icon_rates" transform="translate(4.000000, 5.000000)">
                    <path d="M5.22580645,67.9354839 L36.5806452,67.9354839 L36.5806452,65.3225806 L18.2903226,65.3225806 L18.2903226,54.8709677 L36.5806452,54.8709677 L36.5806452,52.2580645 L31.3548387,52.2580645 L31.3548387,41.8064516 L49.6451613,41.8064516 L49.6451613,52.2580645 L44.4193548,52.2580645 L44.4193548,54.8709677 L62.7096774,54.8709677 L62.7096774,65.3225806 L44.4193548,65.3225806 L44.4193548,67.9354839 L75.7741935,67.9354839 L75.7741935,78.3870968 L5.22580645,78.3870968 L5.22580645,67.9354839 Z M33.9677419,39.1935484 L47.0322581,39.1935484 L47.0322581,36.5806452 L33.9677419,36.5806452 L33.9677419,39.1935484 Z M39.1935484,26.0624032 C39.623371,26.1055161 40.0584194,26.1290323 40.5,26.1290323 C40.9415806,26.1290323 41.376629,26.1055161 41.8064516,26.0624032 L41.8064516,33.9677419 L39.1935484,33.9677419 L39.1935484,26.0624032 Z M30.0483871,13.0645161 L30.0483871,2.61290323 L50.9516129,2.61290323 L50.9516129,13.0645161 C50.9516129,18.8272742 46.2627581,23.516129 40.5,23.516129 C34.7372419,23.516129 30.0483871,18.8272742 30.0483871,13.0645161 Z M22.2096774,10.4516129 L22.2096774,5.22580645 L27.4354839,5.22580645 L27.4354839,13.0645161 C27.4354839,14.8582742 27.7999839,16.5697258 28.457129,18.1270161 C24.8957419,17.3901774 22.2096774,14.2285645 22.2096774,10.4516129 Z M58.7903226,5.22580645 L58.7903226,10.4516129 C58.7903226,14.2285645 56.1042581,17.3901774 52.542871,18.1270161 C53.2000161,16.5697258 53.5645161,14.8582742 53.5645161,13.0645161 L53.5645161,5.22580645 L58.7903226,5.22580645 Z M78.3870968,78.3870968 L78.3870968,65.3225806 L65.3225806,65.3225806 L65.3225806,52.2580645 L52.2580645,52.2580645 L52.2580645,39.1935484 L49.6451613,39.1935484 L49.6451613,33.9677419 L44.4193548,33.9677419 L44.4193548,25.5267581 C47.0583871,24.6945484 49.3276935,23.0379677 50.9516129,20.8705645 L50.9516129,20.9032258 C56.714371,20.9032258 61.4032258,16.214371 61.4032258,10.4516129 L61.4032258,2.61290323 L53.5645161,2.61290323 L53.5645161,0 L27.4354839,0 L27.4354839,2.61290323 L19.5967742,2.61290323 L19.5967742,10.4516129 C19.5967742,16.214371 24.285629,20.9032258 30.0483871,20.9032258 L30.0483871,20.8692581 C31.6723065,23.0379677 33.9416129,24.6932419 36.5806452,25.5254516 L36.5806452,33.9677419 L31.3548387,33.9677419 L31.3548387,39.1935484 L28.7419355,39.1935484 L28.7419355,52.2580645 L15.6774194,52.2580645 L15.6774194,65.3225806 L2.61290323,65.3225806 L2.61290323,78.3870968 L0,78.3870968 L0,81 L81,81 L81,78.3870968 L78.3870968,78.3870968 Z" id="Page-1" fill="#231F20"></path>
                    <polygon id="Clip-4" points="0 81 81 81 81 0 0 0"></polygon>
                    <polygon id="Fill-3" fill="#231F20" points="39.1935484 54.8709677 41.8064516 54.8709677 41.8064516 52.2580645 39.1935484 52.2580645"></polygon>
                    <polygon id="Fill-5" fill="#231F20" points="39.1935484 67.9354839 41.8064516 67.9354839 41.8064516 65.3225806 39.1935484 65.3225806"></polygon>
                    <path d="M35.2741935,13.0645161 C35.2741935,10.1824839 37.6179677,7.83870968 40.5,7.83870968 C43.3820323,7.83870968 45.7258065,10.1824839 45.7258065,13.0645161 C45.7258065,15.9465484 43.3820323,18.2903226 40.5,18.2903226 C37.6179677,18.2903226 35.2741935,15.9465484 35.2741935,13.0645161 M48.3387097,13.0645161 C48.3387097,8.74146774 44.8230484,5.22580645 40.5,5.22580645 C36.1769516,5.22580645 32.6612903,8.74146774 32.6612903,13.0645161 C32.6612903,17.3875645 36.1769516,20.9032258 40.5,20.9032258 C44.8230484,20.9032258 48.3387097,17.3875645 48.3387097,13.0645161" id="Fill-6" fill="#231F20"></path>
                    <polygon id="Fill-7" fill="#231F20" points="71.8548387 2.61290323 74.4677419 2.61290323 74.4677419 0 71.8548387 0"></polygon>
                    <polygon id="Fill-8" fill="#231F20" points="69.2419355 5.22580645 71.8548387 5.22580645 71.8548387 2.61290323 69.2419355 2.61290323"></polygon>
                    <polygon id="Fill-9" fill="#231F20" points="71.8548387 7.83870968 74.4677419 7.83870968 74.4677419 5.22580645 71.8548387 5.22580645"></polygon>
                    <polygon id="Fill-10" fill="#231F20" points="74.4677419 5.22580645 77.0806452 5.22580645 77.0806452 2.61290323 74.4677419 2.61290323"></polygon>
                    <polygon id="Fill-11" fill="#231F20" points="58.7903226 27.4354839 61.4032258 27.4354839 61.4032258 24.8225806 58.7903226 24.8225806"></polygon>
                    <polygon id="Fill-12" fill="#231F20" points="56.1774194 30.0483871 58.7903226 30.0483871 58.7903226 27.4354839 56.1774194 27.4354839"></polygon>
                    <polygon id="Fill-13" fill="#231F20" points="58.7903226 32.6612903 61.4032258 32.6612903 61.4032258 30.0483871 58.7903226 30.0483871"></polygon>
                    <polygon id="Fill-14" fill="#231F20" points="61.4032258 30.0483871 64.016129 30.0483871 64.016129 27.4354839 61.4032258 27.4354839"></polygon>
                    <polygon id="Fill-15" fill="#231F20" points="2.61290323 6.53225806 5.22580645 6.53225806 5.22580645 3.91935484 2.61290323 3.91935484"></polygon>
                    <polygon id="Fill-16" fill="#231F20" points="0 9.14516129 2.61290323 9.14516129 2.61290323 6.53225806 0 6.53225806"></polygon>
                    <polygon id="Fill-17" fill="#231F20" points="2.61290323 11.7580645 5.22580645 11.7580645 5.22580645 9.14516129 2.61290323 9.14516129"></polygon>
                    <polygon id="Fill-18" fill="#231F20" points="5.22580645 9.14516129 7.83870968 9.14516129 7.83870968 6.53225806 5.22580645 6.53225806"></polygon>
                    <polygon id="Fill-19" fill="#231F20" points="19.5967742 24.8225806 22.2096774 24.8225806 22.2096774 22.2096774 19.5967742 22.2096774"></polygon>
                    <polygon id="Fill-20" fill="#231F20" points="16.983871 27.4354839 19.5967742 27.4354839 19.5967742 24.8225806 16.983871 24.8225806"></polygon>
                    <polygon id="Fill-21" fill="#231F20" points="19.5967742 30.0483871 22.2096774 30.0483871 22.2096774 27.4354839 19.5967742 27.4354839"></polygon>
                    <polygon id="Fill-22" fill="#231F20" points="22.2096774 27.4354839 24.8225806 27.4354839 24.8225806 24.8225806 22.2096774 24.8225806"></polygon>
                </g>
            </g>
        </g>
    </g>
</svg>