<?xml version="1.0" encoding="UTF-8"?>
<svg width="78px" height="78px" viewBox="0 0 78 78" version="1.1" xmlns="http://www.w3.org/2000/svg" xmlns:xlink="http://www.w3.org/1999/xlink">
    <!-- Generator: Sketch Beta 48 (47110) - http://www.bohemiancoding.com/sketch -->
    <title>icon_startup</title>
    <desc>Created with Sketch Beta.</desc>
    <defs></defs>
    <g id="outstuff" stroke="none" stroke-width="1" fill="none" fill-rule="evenodd" transform="translate(-280.000000, -1114.000000)">
        <g id="2" transform="translate(171.000000, 962.000000)" fill="#1F29FF">
            <g id="startups" transform="translate(0.000000, 152.000000)">
                <g id="icon_startup" transform="translate(109.000000, 0.000000)">
                    <path d="M44.5797,46.2776984 L43.8975413,46.6288095 L43.8975413,48.9135397 L40.1356365,48.9135397 L40.1356365,39.9576984 C42.2937159,39.3971746 43.8975413,37.4497619 43.8975413,35.1198889 C43.8975413,32.3536349 41.6479222,30.1040159 38.8816683,30.1040159 C36.1154143,30.1040159 33.8657952,32.3536349 33.8657952,35.1198889 C33.8657952,37.4497619 35.4696206,39.3971746 37.6277,39.9576984 L37.6277,48.9135397 L33.8657952,48.9135397 L33.8657952,46.6288095 L33.1836365,46.2789524 C28.9640333,44.119619 26.3419857,39.8435873 26.3419857,35.1198889 C26.3419857,28.2055079 31.9672873,22.5802063 38.8816683,22.5802063 C45.7960492,22.5802063 51.4213508,28.2055079 51.4213508,35.1198889 C51.4213508,39.8435873 48.7993032,44.119619 44.5797,46.2776984 Z M44.5245254,56.4373492 L33.2388111,56.4373492 C32.8939698,56.4373492 32.611827,56.1552063 32.611827,55.8103651 C32.611827,55.4655238 32.8939698,55.183381 33.2388111,55.183381 L44.5245254,55.183381 C44.8693667,55.183381 45.1515095,55.4655238 45.1515095,55.8103651 C45.1515095,56.1552063 44.8693667,56.4373492 44.5245254,56.4373492 Z M44.5245254,51.4214762 C44.8693667,51.4214762 45.1515095,51.703619 45.1515095,52.0484603 C45.1515095,52.3933016 44.8693667,52.6754444 44.5245254,52.6754444 L33.2388111,52.6754444 C32.8939698,52.6754444 32.611827,52.3933016 32.611827,52.0484603 C32.611827,51.703619 32.8939698,51.4214762 33.2388111,51.4214762 L44.5245254,51.4214762 Z M38.8816683,37.6278254 C37.4985413,37.6278254 36.3737317,36.5030159 36.3737317,35.1198889 C36.3737317,33.7367619 37.4985413,32.6119524 38.8816683,32.6119524 C40.2647952,32.6119524 41.3896048,33.7367619 41.3896048,35.1198889 C41.3896048,36.5030159 40.2647952,37.6278254 38.8816683,37.6278254 Z M38.8816683,20.0722698 C30.5841603,20.0722698 23.8340492,26.822381 23.8340492,35.1198889 C23.8340492,40.5295079 26.6968587,45.4500794 31.3578587,48.1398413 L31.3578587,49.5568254 C30.6004619,50.1298889 30.1038905,51.0289841 30.1038905,52.0497143 C30.1038905,52.7582063 30.3484143,53.405254 30.7459222,53.9306667 C30.3484143,54.4548254 30.1038905,55.101873 30.1038905,55.8103651 C30.1038905,57.5395873 31.5095889,58.9452857 33.2388111,58.9452857 L44.5245254,58.9452857 C46.2537476,58.9452857 47.659446,57.5395873 47.659446,55.8103651 C47.659446,55.101873 47.4149222,54.4548254 47.0174143,53.9294127 C47.4149222,53.404 47.659446,52.7569524 47.659446,52.0484603 C47.659446,51.0277302 47.1628746,50.1286349 46.4054778,49.5555714 L46.4054778,48.1385873 C51.0664778,45.4488254 53.9292873,40.5295079 53.9292873,35.1186349 C53.9292873,26.822381 47.1791762,20.0722698 38.8816683,20.0722698 Z" id="Fill-1"></path>
                    <path d="M69.6629524,69.6629524 C64.5555397,74.771619 56.5777937,76.4569524 47.1893333,74.4016984 C44.1421905,73.7345873 41.0687143,72.6988095 38.0265873,71.3332381 C45.03,68.6660476 51.9305873,64.1179048 57.9433651,58.1276984 C58.7897937,58.6355556 59.7691429,58.9452857 60.8262381,58.9452857 C63.9373333,58.9452857 66.4690952,56.4135238 66.4690952,53.3024286 C66.4690952,51.8942222 65.9323968,50.6201905 65.0759365,49.6308095 C67.7631905,45.7949206 69.8523016,41.8775238 71.3282222,38.0165556 C72.6963016,41.0624444 73.7345873,44.1396825 74.4016984,47.1905873 C76.4544444,56.5715238 74.771619,64.5542857 69.6629524,69.6629524 M11.2681587,66.4954286 C6.63474603,61.8620159 5.23030159,54.5965238 7.04604762,46.373 C9.86747619,51.1869841 13.4588413,55.8266667 17.6985079,60.0650794 C21.9444444,64.3122698 26.5929048,67.9086508 31.4169206,70.7325873 C23.3601746,72.5082063 16.0144286,71.2429524 11.2681587,66.4954286 M3.36188889,30.574254 C1.30914286,21.1920635 2.99196825,13.2105556 8.10063492,8.10063492 C11.7898095,4.41146032 16.9749683,2.50919048 23.106873,2.50919048 C25.4655873,2.50919048 27.966,2.79133333 30.574254,3.36188889 C33.6213968,4.029 36.696127,5.06477778 39.737,6.43034921 C32.6972222,9.11133333 25.7615238,13.6908254 19.7261746,19.7261746 C17.5430159,21.9093333 15.5379206,24.2442222 13.7322063,26.6668889 C13.1616508,26.4712698 12.5584921,26.3421111 11.9214762,26.3421111 C8.81038095,26.3421111 6.27861905,28.873873 6.27861905,31.9849683 C6.27861905,33.5887937 6.95826984,35.0296032 8.03542857,36.0578571 C7.44355556,37.2942698 6.90309524,38.5256667 6.43536508,39.7470317 C5.06728571,36.7023968 4.029,33.6251587 3.36188889,30.574254 M15.0563968,31.9849683 C15.0563968,33.7129365 13.6506984,35.1198889 11.9214762,35.1198889 C10.192254,35.1198889 8.78655556,33.7129365 8.78655556,31.9849683 C8.78655556,30.257 10.192254,28.8500476 11.9214762,28.8500476 C13.6506984,28.8500476 15.0563968,30.257 15.0563968,31.9849683 M63.0658254,48.1285556 C62.3786508,47.8288571 61.6225079,47.6595714 60.8262381,47.6595714 C57.7151429,47.6595714 55.183381,50.1913333 55.183381,53.3024286 C55.183381,54.4485556 55.5307302,55.5119206 56.1200952,56.4022381 C49.5380159,62.9429365 42.0443016,67.5023651 34.8841429,69.794619 C29.465746,66.9305556 24.214127,63.0344762 19.471619,58.2919683 C14.734127,53.5544762 10.8405556,48.309127 7.97774603,42.897 C8.56460317,41.0712222 9.31698413,39.2103333 10.2060476,37.3318889 C10.7502698,37.5074444 11.3195714,37.6278254 11.9214762,37.6278254 C15.0325714,37.6278254 17.5643333,35.0960635 17.5643333,31.9849683 C17.5643333,30.4175079 16.9197937,29.0005238 15.8852698,27.9760317 C17.5831429,25.7188889 19.4603333,23.540746 21.5005397,21.4992857 C28.1177302,14.8820952 35.670381,10.2775238 42.8832063,7.96896825 C48.3016032,10.8317778 53.5507143,14.7278571 58.2932222,19.4703651 C63.0344762,24.211619 66.9305556,29.4619841 69.794619,34.879127 C68.3951905,39.2291429 66.1418095,43.727127 63.0658254,48.1285556 M57.6913175,53.3024286 C57.6913175,51.5732063 59.0970159,50.1675079 60.8262381,50.1675079 C62.5554603,50.1675079 63.9611587,51.5732063 63.9611587,53.3024286 C63.9611587,55.0316508 62.5554603,56.4373492 60.8262381,56.4373492 C59.0970159,56.4373492 57.6913175,55.0316508 57.6913175,53.3024286 M66.4954286,11.2681587 C71.1927937,15.9655238 72.523254,23.2849365 70.7300794,31.4119048 C67.9061429,26.5903968 64.3110159,21.9419365 60.0650794,17.697254 C55.8203968,13.4513175 51.1719365,9.85619048 46.3504286,7.03225397 C54.4046667,5.25788889 61.7504127,6.52314286 66.4954286,11.2681587 M76.8519524,46.6526349 C75.9729206,42.6361746 74.4832063,38.5833492 72.4718413,34.6132857 C75.3960952,24.6041111 74.0982381,15.3234921 68.2685397,9.49504762 C63.0758571,4.30361905 55.1194286,2.55934921 45.8488413,4.58701587 C44.9472381,4.78388889 44.044381,5.02465079 43.1402698,5.28798413 C39.1714603,3.27912698 35.1223968,1.79066667 31.1084444,0.912888889 C20.8622698,-1.33046032 12.0619206,0.593126984 6.32752381,6.32752381 C0.593126984,12.0619206 -1.32920635,20.8635238 0.911634921,31.1096984 C1.79066667,35.1261587 3.27912698,39.1789841 5.29049206,43.1490476 C2.31231746,53.2974127 3.72679365,62.5015397 9.49379365,68.2685397 C13.2745079,72.049254 18.5211111,74.0004286 24.6718254,74.0004286 C26.9690952,74.0004286 29.3930159,73.7270635 31.9122381,73.1765714 C32.8138413,72.9796984 33.7166984,72.7389365 34.6208095,72.4756032 C38.589619,74.4844603 42.6386825,75.9729206 46.6526349,76.8506984 C49.4427143,77.460127 52.1249524,77.7623333 54.668,77.7623333 C61.4645079,77.7623333 67.2616032,75.6080159 71.4348095,71.4348095 C77.1704603,65.7016667 79.0927937,56.9000635 76.8519524,46.6526349" id="Fill-3"></path>
                </g>
            </g>
        </g>
    </g>
</svg>