<?xml version="1.0" encoding="UTF-8"?>
<svg width="81px" height="81px" viewBox="0 0 81 81" version="1.1" xmlns="http://www.w3.org/2000/svg" xmlns:xlink="http://www.w3.org/1999/xlink">
    <!-- Generator: Sketch Beta 48 (47110) - http://www.bohemiancoding.com/sketch -->
    <title>icon_manager</title>
    <desc>Created with Sketch Beta.</desc>
    <defs>
        <polygon id="path-1" points="0 81 81 81 81 0 0 0"></polygon>
    </defs>
    <g id="outstuff" stroke="none" stroke-width="1" fill="none" fill-rule="evenodd" transform="translate(-174.000000, -2735.000000)">
        <g id="4" transform="translate(169.000000, 2324.000000)">
            <g id="manager" transform="translate(0.000000, 411.000000)">
                <g id="icon_manager" transform="translate(5.000000, 0.000000)">
                    <path d="M66.6290323,78.3870968 L66.6290323,70.5483871 C66.6290323,64.0657742 61.3548871,58.7903226 54.8709677,58.7903226 L53.5645161,58.7903226 L56.7,62.9709677 L51.3017419,67.0196613 L53.9420806,72.3016452 L44.8152097,78.3870968 L54.8709677,78.3870968 L54.8709677,70.5483871 L57.483871,70.5483871 L57.483871,78.3870968 L66.6290323,78.3870968 Z M14.3709677,70.5483871 L14.3709677,78.3870968 L23.516129,78.3870968 L23.516129,70.5483871 L26.1290323,70.5483871 L26.1290323,78.3870968 L36.1847903,78.3870968 L27.0592258,72.3016452 L29.6995645,67.0196613 L24.3,62.9709677 L27.4354839,58.7903226 L26.1290323,58.7903226 C19.6451129,58.7903226 14.3709677,64.0657742 14.3709677,70.5483871 Z M28.7419355,44.4193548 C28.7419355,50.9019677 34.0173871,56.1774194 40.5013065,56.1774194 C46.9852258,56.1774194 52.259371,50.9019677 52.259371,44.4193548 L52.259371,41.6666613 C49.517129,41.1075 47.3928387,38.8316613 47.0740645,36.0097258 C45.1810161,38.0268871 42.5289194,39.1935484 39.7095968,39.1935484 L28.7419355,39.1935484 L28.7419355,44.4193548 Z M36.8889677,24.8225806 C32.3973871,24.8225806 28.7419355,28.4767258 28.7419355,32.9696129 L28.7419355,36.5806452 L39.7095968,36.5806452 C42.2205968,36.5806452 44.5526129,35.3329839 45.9452903,33.2426613 L46.3333065,32.6612903 L49.6451613,32.6612903 L49.6451613,35.2741935 C49.6451613,36.9751935 50.7412742,38.4122903 52.2580645,38.9531613 L52.2580645,32.6612903 C52.2580645,31.2202742 51.0861774,30.0483871 49.6451613,30.0483871 L48.626129,30.0483871 L48.3779032,29.0594032 C47.7547258,26.5640806 45.5233065,24.8225806 42.9522097,24.8225806 L36.8889677,24.8225806 Z M46.4535,58.7903226 L34.5465,58.7903226 L40.5,74.6663226 L46.4535,58.7903226 Z M27.9580645,62.4483871 L33.0114194,66.2370968 L30.4259516,71.4067258 L38.5076613,76.7945323 L31.7559194,58.7903226 L30.7016129,58.7903226 L27.9580645,62.4483871 Z M53.0419355,62.4483871 L50.2983871,58.7903226 L49.2440806,58.7903226 L42.4936452,76.7958387 L50.5753548,71.4080323 L47.9898871,66.2384032 L53.0419355,62.4483871 Z M54.8709677,56.1774194 C62.7945968,56.1774194 69.2419355,62.6247581 69.2419355,70.5483871 L69.2419355,81 L11.7580645,81 L11.7580645,70.5483871 C11.7580645,62.6247581 18.2054032,56.1774194 26.1290323,56.1774194 L32.2628226,56.1774194 C28.5603387,53.5749677 26.1290323,49.2793548 26.1290323,44.4193548 L26.1290323,32.9696129 C26.1290323,27.0357097 30.9550645,22.2096774 36.8889677,22.2096774 L42.9522097,22.2096774 C46.4077742,22.2096774 49.4452742,24.3561774 50.6341452,27.5295484 C53.0445484,27.9933387 54.8709677,30.117629 54.8709677,32.6612903 L54.8709677,44.4193548 C54.8709677,49.2793548 52.4396613,53.5749677 48.7371774,56.1774194 L54.8709677,56.1774194 Z" id="Fill-1" fill="#231F20"></path>
                    <path d="M74.4677419,44.4193548 C72.306871,44.4193548 70.5483871,42.660871 70.5483871,40.5 C70.5483871,38.339129 72.306871,36.5806452 74.4677419,36.5806452 C76.6286129,36.5806452 78.3870968,38.339129 78.3870968,40.5 C78.3870968,42.660871 76.6286129,44.4193548 74.4677419,44.4193548 M74.4677419,33.9677419 C71.3139677,33.9677419 68.6749355,36.2161452 68.0674355,39.1935484 L66.6290323,39.1935484 L66.6290323,41.8064516 L68.0674355,41.8064516 C68.6749355,44.7838548 71.3126613,47.0322581 74.4677419,47.0322581 C78.069629,47.0322581 81,44.1018871 81,40.5 C81,36.8981129 78.069629,33.9677419 74.4677419,33.9677419" id="Fill-3" fill="#231F20"></path>
                    <mask id="mask-2" fill="white">
                        <use xlink:href="#path-1"></use>
                    </mask>
                    <g id="Clip-6"></g>
                    <polygon id="Fill-5" fill="#231F20" mask="url(#mask-2)" points="61.4032258 41.8064516 64.016129 41.8064516 64.016129 39.1935484 61.4032258 39.1935484"></polygon>
                    <polygon id="Fill-7" fill="#231F20" mask="url(#mask-2)" points="54.3564871 24.7954065 56.2051161 22.9467774 58.0524387 24.7941 56.2038097 26.642729"></polygon>
                    <path d="M61.748129,13.7099032 C62.4875806,12.9704516 63.4713387,12.5628387 64.5191129,12.5628387 C65.5668871,12.5628387 66.5506452,12.9704516 67.2900968,13.7099032 C68.8186452,15.2384516 68.8186452,17.724629 67.2900968,19.2531774 C65.8098871,20.7333871 63.2283387,20.7333871 61.748129,19.2531774 C60.2195806,17.724629 60.2195806,15.2384516 61.748129,13.7099032 Z M58.0534839,21.1005 L59.9008065,22.9478226 L60.9185323,21.9300968 C61.9780645,22.6329677 63.2191935,23.0131452 64.5204194,23.0131452 C66.2658387,23.0131452 67.9054355,22.3337903 69.1387258,21.1005 C71.685,18.5529194 71.685,14.4088548 69.1387258,11.8625806 C67.9054355,10.6292903 66.2658387,9.94993548 64.5204194,9.94993548 C62.775,9.94993548 61.1354032,10.6292903 59.9021129,11.8625806 C57.672,14.094 57.3950323,17.5482581 59.0725161,20.0840806 L58.0534839,21.1005 Z" id="Fill-8" fill="#231F20" mask="url(#mask-2)"></path>
                    <path d="M40.5,2.61290323 C42.660871,2.61290323 44.4193548,4.3713871 44.4193548,6.53225806 C44.4193548,8.69312903 42.660871,10.4516129 40.5,10.4516129 C38.339129,10.4516129 36.5806452,8.69312903 36.5806452,6.53225806 C36.5806452,4.3713871 38.339129,2.61290323 40.5,2.61290323 M39.1935484,12.9325645 L39.1935484,14.3709677 L41.8064516,14.3709677 L41.8064516,12.9325645 C44.7838548,12.3250645 47.0322581,9.68733871 47.0322581,6.53225806 C47.0322581,2.93037097 44.1018871,0 40.5,0 C36.8981129,0 33.9677419,2.93037097 33.9677419,6.53225806 C33.9677419,9.68603226 36.2161452,12.3250645 39.1935484,12.9325645" id="Fill-9" fill="#231F20" mask="url(#mask-2)"></path>
                    <polygon id="Fill-10" fill="#231F20" mask="url(#mask-2)" points="39.1935484 19.5967742 41.8064516 19.5967742 41.8064516 16.983871 39.1935484 16.983871"></polygon>
                    <path d="M13.7099032,13.7099032 C14.4493548,12.9704516 15.4331129,12.5628387 16.4808871,12.5628387 C17.5286613,12.5628387 18.5124194,12.9704516 19.251871,13.7099032 C20.7804194,15.2384516 20.7804194,17.724629 19.251871,19.2531774 C17.7716613,20.7333871 15.1901129,20.7333871 13.7099032,19.2531774 C12.1813548,17.724629 12.1813548,15.2384516 13.7099032,13.7099032 M16.4808871,23.0131452 C17.7821129,23.0131452 19.0232419,22.6342742 20.0827742,21.9300968 L21.1005,22.9478226 L22.9478226,21.1005 L21.9300968,20.0827742 C23.6062742,17.5482581 23.3306129,14.0926935 21.1005,11.8612742 C19.8672097,10.6279839 18.2276129,9.94862903 16.4821935,9.94862903 C14.7367742,9.94862903 13.0971774,10.6279839 11.8638871,11.8612742 C9.3176129,14.4088548 9.3176129,18.5529194 11.8638871,21.0991935 C13.095871,22.3337903 14.7354677,23.0131452 16.4808871,23.0131452" id="Fill-11" fill="#231F20" mask="url(#mask-2)"></path>
                    <polygon id="Fill-12" fill="#231F20" mask="url(#mask-2)" points="22.9470387 24.7952758 24.7943613 22.9479532 26.6429903 24.7965823 24.7956677 26.6439048"></polygon>
                    <polygon id="Fill-13" fill="#231F20" mask="url(#mask-2)" points="16.983871 41.8064516 19.5967742 41.8064516 19.5967742 39.1935484 16.983871 39.1935484"></polygon>
                    <path d="M6.53225806,44.4193548 C4.3713871,44.4193548 2.61290323,42.660871 2.61290323,40.5 C2.61290323,38.339129 4.3713871,36.5806452 6.53225806,36.5806452 C8.69312903,36.5806452 10.4516129,38.339129 10.4516129,40.5 C10.4516129,42.660871 8.69312903,44.4193548 6.53225806,44.4193548 Z M14.3709677,41.8064516 L14.3709677,39.1935484 L12.9325645,39.1935484 C12.3250645,36.2161452 9.68603226,33.9677419 6.53225806,33.9677419 C2.93037097,33.9677419 0,36.8981129 0,40.5 C0,44.1018871 2.93037097,47.0322581 6.53225806,47.0322581 C9.68603226,47.0322581 12.3250645,44.7838548 12.9325645,41.8064516 L14.3709677,41.8064516 Z" id="Fill-14" fill="#231F20" mask="url(#mask-2)"></path>
                </g>
            </g>
        </g>
    </g>
</svg>