<?xml version="1.0" encoding="UTF-8"?>
<svg width="75px" height="77px" viewBox="0 0 75 77" version="1.1" xmlns="http://www.w3.org/2000/svg" xmlns:xlink="http://www.w3.org/1999/xlink">
    <!-- Generator: Sketch Beta 48 (47110) - http://www.bohemiancoding.com/sketch -->
    <title>icon_product</title>
    <desc>Created with Sketch Beta.</desc>
    <defs>
        <polygon id="path-1" points="0 76.9759355 75 76.9759355 75 0 0 0"></polygon>
    </defs>
    <g id="outstuff" stroke="none" stroke-width="1" fill="none" fill-rule="evenodd" transform="translate(-680.000000, -1115.000000)">
        <g id="2" transform="translate(171.000000, 962.000000)">
            <g id="product" transform="translate(400.000000, 153.000000)">
                <g id="icon_product" transform="translate(109.000000, 0.000000)">
                    <path d="M61.25,52.7129032 L61.25,44.3354516 C61.25,38.9635161 57.57375,34.4030323 52.5,33.189 L52.5,49.2985161 L53.75,49.2985161 C56.73375,49.2985161 59.41625,50.6207419 61.25,52.7129032 Z M21.25,49.2985161 L22.5,49.2985161 L22.5,33.1902581 C17.42625,34.4030323 13.75,38.9635161 13.75,44.3367097 L13.75,52.7129032 C15.58375,50.6207419 18.26625,49.2985161 21.25,49.2985161 Z M34.5275,4.88632258 C28.5625,8.70832258 25,15.2389355 25,22.3558065 L25,37.9759355 L50,37.9759355 L50,22.3558065 C50,15.2389355 46.4375,8.70832258 40.4725,4.88758065 L37.5,2.98412903 L34.5275,4.88632258 Z M25,49.2985161 L50,49.2985161 L50,40.4920645 L25,40.4920645 L25,49.2985161 Z M52.5,30.6124839 C58.985,31.8730645 63.75,37.5809032 63.75,44.3367097 L63.75,59.3630323 L61.25,59.3630323 C61.25,55.2000968 57.88625,51.8146452 53.75,51.8146452 L52.5,51.8146452 L51.25,51.8146452 L51.25,64.3952903 L48.75,64.3952903 L48.75,51.8146452 L45,51.8146452 L45,65.6533548 L42.5,65.6533548 L42.5,51.8146452 L38.75,51.8146452 L38.75,76.9759355 L36.25,76.9759355 L36.25,51.8146452 L32.5,51.8146452 L32.5,70.6856129 L30,70.6856129 L30,51.8146452 L26.25,51.8146452 L26.25,59.3630323 L23.75,59.3630323 L23.75,51.8146452 L22.5,51.8146452 L21.25,51.8146452 C17.11375,51.8146452 13.75,55.2000968 13.75,59.3630323 L11.25,59.3630323 L11.25,44.3367097 C11.25,37.5809032 16.015,31.8730645 22.5,30.6124839 L22.5,22.3558065 C22.5,14.3733871 26.49375,7.05019355 33.185,2.76270968 L37.5,-7.10542736e-15 L41.815,2.76396774 C48.50625,7.05019355 52.5,14.3733871 52.5,22.3558065 L52.5,30.6124839 Z" id="Fill-1" fill="#1F29FF"></path>
                    <path d="M37.5,15.3307742 C40.94625,15.3307742 43.75,18.1526129 43.75,21.6210968 C43.75,25.0895806 40.94625,27.9114194 37.5,27.9114194 C34.05375,27.9114194 31.25,25.0895806 31.25,21.6210968 C31.25,18.1526129 34.05375,15.3307742 37.5,15.3307742 M37.5,30.4275484 C42.32375,30.4275484 46.25,26.4759677 46.25,21.6210968 C46.25,16.7662258 42.32375,12.8146452 37.5,12.8146452 C32.67625,12.8146452 28.75,16.7662258 28.75,21.6210968 C28.75,26.4759677 32.67625,30.4275484 37.5,30.4275484" id="Fill-3" fill="#1F29FF"></path>
                    <mask id="mask-2" fill="white">
                        <use xlink:href="#path-1"></use>
                    </mask>
                    <g id="Clip-6"></g>
                    <polygon id="Fill-5" fill="#1F29FF" mask="url(#mask-2)" points="23.75 64.3952903 26.25 64.3952903 26.25 61.8791613 23.75 61.8791613"></polygon>
                    <polygon id="Fill-7" fill="#1F29FF" mask="url(#mask-2)" points="42.5 70.6856129 45 70.6856129 45 68.1694839 42.5 68.1694839"></polygon>
                    <polygon id="Fill-8" fill="#1F29FF" mask="url(#mask-2)" points="5 10.2985161 2.5 10.2985161 2.5 12.8146452 0 12.8146452 0 15.3307742 2.5 15.3307742 2.5 17.8469032 5 17.8469032 5 15.3307742 7.5 15.3307742 7.5 12.8146452 5 12.8146452"></polygon>
                    <polygon id="Fill-9" fill="#1F29FF" mask="url(#mask-2)" points="11.25 12.8146452 13.75 12.8146452 13.75 9.04045161 17.5 9.04045161 17.5 6.52432258 13.75 6.52432258 13.75 2.75012903 11.25 2.75012903 11.25 6.52432258 7.5 6.52432258 7.5 9.04045161 11.25 9.04045161"></polygon>
                    <polygon id="Fill-10" fill="#1F29FF" mask="url(#mask-2)" points="16.25 24.1372258 16.25 21.6210968 18.75 21.6210968 18.75 19.1049677 16.25 19.1049677 16.25 16.5888387 13.75 16.5888387 13.75 19.1049677 11.25 19.1049677 11.25 21.6210968 13.75 21.6210968 13.75 24.1372258"></polygon>
                    <polygon id="Fill-11" fill="#1F29FF" mask="url(#mask-2)" points="60 16.5888387 62.5 16.5888387 62.5 14.0727097 65 14.0727097 65 11.5565806 62.5 11.5565806 62.5 9.04045161 60 9.04045161 60 11.5565806 57.5 11.5565806 57.5 14.0727097 60 14.0727097"></polygon>
                    <polygon id="Fill-12" fill="#1F29FF" mask="url(#mask-2)" points="75 20.3630323 71.25 20.3630323 71.25 16.5888387 68.75 16.5888387 68.75 20.3630323 65 20.3630323 65 22.8791613 68.75 22.8791613 68.75 26.6533548 71.25 26.6533548 71.25 22.8791613 75 22.8791613"></polygon>
                    <polygon id="Fill-13" fill="#1F29FF" mask="url(#mask-2)" points="57.5 27.9114194 60 27.9114194 60 25.3952903 62.5 25.3952903 62.5 22.8791613 60 22.8791613 60 20.3630323 57.5 20.3630323 57.5 22.8791613 55 22.8791613 55 25.3952903 57.5 25.3952903"></polygon>
                </g>
            </g>
        </g>
    </g>
</svg>