<?xml version="1.0" encoding="UTF-8"?>
<svg width="81px" height="81px" viewBox="0 0 81 81" version="1.1" xmlns="http://www.w3.org/2000/svg" xmlns:xlink="http://www.w3.org/1999/xlink">
    <!-- Generator: Sketch Beta 48 (47110) - http://www.bohemiancoding.com/sketch -->
    <title>icon_relationships</title>
    <desc>Created with Sketch Beta.</desc>
    <defs>
        <polygon id="path-1" points="0 81 81 81 81 0 0 0"></polygon>
    </defs>
    <g id="outstuff" stroke="none" stroke-width="1" fill="none" fill-rule="evenodd" transform="translate(-975.000000, -2731.000000)">
        <g id="4" transform="translate(169.000000, 2324.000000)">
            <g id="relations" transform="translate(801.000000, 407.000000)">
                <g id="icon_relationships" transform="translate(5.000000, 0.000000)">
                    <path d="M78.3870968,52.9112903 L78.3870968,21.6021774 L74.4677419,18.9892742 L74.4677419,7.83870968 L57.483871,7.83870968 L57.483871,18.9174194 L50.6668065,24.3718548 L43.766129,37.0235323 C43.3389194,37.8060968 43.1129032,38.6905645 43.1129032,39.582871 C43.1129032,40.809629 44.1097258,41.8064516 45.3364839,41.8064516 C46.0145323,41.8064516 46.6481613,41.5020484 47.0727581,40.971629 L51.6309677,35.2741935 L54.8709677,35.2741935 L54.8709677,55.5241935 C54.8709677,56.604629 55.7502097,57.483871 56.8306452,57.483871 C57.9110806,57.483871 58.7903226,56.604629 58.7903226,55.5241935 L58.7903226,44.4193548 L61.4032258,44.4193548 L61.4032258,58.1370968 C61.4032258,59.2175323 62.2824677,60.0967742 63.3629032,60.0967742 C64.4433387,60.0967742 65.3225806,59.2175323 65.3225806,58.1370968 L65.3225806,44.4193548 L67.9354839,44.4193548 L67.9354839,55.5241935 C67.9354839,56.604629 68.8147258,57.483871 69.8951613,57.483871 C70.9755968,57.483871 71.8548387,56.604629 71.8548387,55.5241935 L71.8548387,44.4193548 L74.4677419,44.4193548 L74.4677419,52.9112903 C74.4677419,53.9917258 75.3469839,54.8709677 76.4274194,54.8709677 C77.5078548,54.8709677 78.3870968,53.9917258 78.3870968,52.9112903 Z M77.0806452,17.591371 L81,20.2042742 L81,52.9112903 C81,55.4327419 78.948871,57.483871 76.4274194,57.483871 C75.6383226,57.483871 74.8949516,57.2826774 74.2469516,56.9299355 C73.6525161,58.7655 71.9266935,60.0967742 69.8951613,60.0967742 C69.1060645,60.0967742 68.3626935,59.8955806 67.7146935,59.5428387 C67.1202581,61.3784032 65.3944355,62.7096774 63.3629032,62.7096774 C61.331371,62.7096774 59.6055484,61.3784032 59.0111129,59.5428387 C58.3631129,59.8955806 57.6197419,60.0967742 56.8306452,60.0967742 C54.3091935,60.0967742 52.2580645,58.0456452 52.2580645,55.5241935 L52.2580645,38.6722742 L49.112129,42.6046935 C48.1897742,43.7582903 46.8127742,44.4193548 45.3364839,44.4193548 C42.6700161,44.4193548 40.5,42.2493387 40.5,39.582871 C40.5,38.2555161 40.8357581,36.9373065 41.4706935,35.7732581 L48.6235161,22.6604032 L54.8709677,17.6632258 L54.8709677,0 L57.483871,0 L57.483871,5.22580645 L74.4677419,5.22580645 L74.4677419,0 L77.0806452,0 L77.0806452,17.591371 Z" id="Fill-1" fill="#231F20"></path>
                    <path d="M37.233871,43.9764677 L30.3331935,56.6281452 L23.516129,62.0825806 L23.516129,73.1612903 L6.53225806,73.1612903 L6.53225806,62.0107258 L2.61290323,59.3978226 L2.61290323,28.0887097 C2.61290323,27.0082742 3.49214516,26.1290323 4.57258065,26.1290323 C5.65301613,26.1290323 6.53225806,27.0082742 6.53225806,28.0887097 L6.53225806,36.5806452 L9.14516129,36.5806452 L9.14516129,25.4758065 C9.14516129,24.395371 10.0244032,23.516129 11.1048387,23.516129 C12.1852742,23.516129 13.0645161,24.395371 13.0645161,25.4758065 L13.0645161,36.5806452 L15.6774194,36.5806452 L15.6774194,22.8629032 C15.6774194,21.7824677 16.5566613,20.9032258 17.6370968,20.9032258 C18.7175323,20.9032258 19.5967742,21.7824677 19.5967742,22.8629032 L19.5967742,36.5806452 L22.2096774,36.5806452 L22.2096774,25.4758065 C22.2096774,24.395371 23.0889194,23.516129 24.1693548,23.516129 C25.2497903,23.516129 26.1290323,24.395371 26.1290323,25.4758065 L26.1290323,45.7258065 L29.3690323,45.7258065 L33.9272419,40.028371 C34.3518387,39.4979516 34.9854677,39.1935484 35.6635161,39.1935484 C36.8902742,39.1935484 37.8870968,40.190371 37.8870968,41.417129 C37.8870968,42.308129 37.6610806,43.1939032 37.233871,43.9764677 M40.5,41.417129 C40.5,38.7506613 38.3299839,36.5806452 35.6635161,36.5806452 C34.1872258,36.5806452 32.8102258,37.2417097 31.887871,38.3953065 L28.7419355,42.3277258 L28.7419355,25.4758065 C28.7419355,22.9543548 26.6908065,20.9032258 24.1693548,20.9032258 C23.3802581,20.9032258 22.6368871,21.1044194 21.9888871,21.4571613 C21.3944516,19.6215968 19.668629,18.2903226 17.6370968,18.2903226 C15.6055645,18.2903226 13.8797419,19.6215968 13.2853065,21.4571613 C12.6373065,21.1044194 11.8939355,20.9032258 11.1048387,20.9032258 C9.07330645,20.9032258 7.34748387,22.2345 6.75304839,24.0700645 C6.10504839,23.7173226 5.36167742,23.516129 4.57258065,23.516129 C2.05112903,23.516129 0,25.5672581 0,28.0887097 L0,60.7957258 L3.91935484,63.408629 L3.91935484,81 L6.53225806,81 L6.53225806,75.7741935 L23.516129,75.7741935 L23.516129,81 L26.1290323,81 L26.1290323,63.3367742 L32.3764839,58.3395968 L39.5293065,45.2267419 C40.1642419,44.0626935 40.5,42.7444839 40.5,41.417129" id="Fill-3" fill="#231F20"></path>
                    <mask id="mask-2" fill="white">
                        <use xlink:href="#path-1"></use>
                    </mask>
                    <g id="Clip-8"></g>
                    <polygon id="Fill-7" fill="#231F20" mask="url(#mask-2)" points="49.6451613 2.61290323 52.2580645 2.61290323 52.2580645 0 49.6451613 0"></polygon>
                    <polygon id="Fill-9" fill="#231F20" mask="url(#mask-2)" points="24.1889516 11.5712419 22.8433065 9.33198387 18.2903226 12.0637742 18.2903226 2.61290323 47.0322581 2.61290323 47.0322581 0 15.6774194 0 15.6774194 12.0637742 11.1244355 9.33198387 9.77879032 11.5712419 16.983871 15.8942903"></polygon>
                    <polygon id="Fill-10" fill="#231F20" mask="url(#mask-2)" points="28.7419355 81 31.3548387 81 31.3548387 78.3870968 28.7419355 78.3870968"></polygon>
                    <polygon id="Fill-11" fill="#231F20" mask="url(#mask-2)" points="56.8110484 69.4287581 58.1566935 71.6680161 62.7096774 68.9362258 62.7096774 78.3870968 33.9677419 78.3870968 33.9677419 81 65.3225806 81 65.3225806 68.9362258 69.8755645 71.6680161 71.2212097 69.4287581 64.016129 65.1057097"></polygon>
                </g>
            </g>
        </g>
    </g>
</svg>