<?xml version="1.0" encoding="UTF-8"?>
<svg width="78px" height="78px" viewBox="0 0 78 78" version="1.1" xmlns="http://www.w3.org/2000/svg" xmlns:xlink="http://www.w3.org/1999/xlink">
    <!-- Generator: Sketch Beta 48 (47110) - http://www.bohemiancoding.com/sketch -->
    <title>icon_integrators</title>
    <desc>Created with Sketch Beta.</desc>
    <defs></defs>
    <g id="outstuff" stroke="none" stroke-width="1" fill="none" fill-rule="evenodd" transform="translate(-1080.000000, -1114.000000)">
        <g id="2" transform="translate(171.000000, 962.000000)" fill="#1F29FF">
            <g id="integrators" transform="translate(801.000000, 152.000000)">
                <g id="icon_integrators" transform="translate(108.000000, 0.000000)">
                    <path d="M56.2379683,51.5806452 L55.6109841,49.0645161 L69.0522698,49.0645161 L69.0522698,46.5483871 L56.0774603,46.5483871 C58.618,41.4670645 60.0374921,35.88 60.2318571,30.1935484 L65.2903651,30.1935484 L65.2903651,27.6774194 L60.2744921,27.6774194 L60.2744921,25.1612903 L70.3062381,25.1612903 L70.3062381,27.6774194 L67.7983016,27.6774194 L67.7983016,30.1935484 L70.348873,30.1935484 C70.5419841,35.88 71.9627302,41.4670645 74.5032698,46.5483871 L71.5602063,46.5483871 L71.5602063,49.0645161 L74.969746,49.0645161 L74.3427619,51.5806452 L56.2379683,51.5806452 Z M38.9570317,70.4516129 C33.1323492,70.4516129 27.4669206,68.8236774 22.5262857,65.7628065 C20.972619,61.6174839 20.1475079,57.2117419 20.1475079,52.7607097 L20.1475079,49.0645161 L22.6554444,49.0645161 L22.6554444,46.5483871 L20.1475079,46.5483871 L20.1475079,43.4472581 L23.9094127,40.931129 L23.9094127,30.1935484 L13.8776667,30.1935484 L13.8776667,35.2258065 L11.3697302,35.2258065 L11.3697302,30.1935484 L8.89188889,30.1935484 C12.7653968,16.7876129 24.8925238,7.5483871 38.9570317,7.5483871 C44.833127,7.5483871 50.5487143,9.20148387 55.5206984,12.3139355 C55.8993968,13.9682903 56.684381,15.4653871 57.7665556,16.6982903 L57.7665556,22.6451613 L55.258619,22.6451613 L55.258619,25.1612903 L57.7665556,25.1612903 L57.7665556,28.8574839 C57.7665556,35.274871 56.088746,41.6117419 52.9162063,47.1824516 L52.6666667,47.6215161 L54.2792698,54.0967742 L66.4477778,54.0967742 C60.9792222,64.0920968 50.403254,70.4516129 38.9570317,70.4516129 Z M3.57130159,75.483871 L2.94431746,72.9677419 L16.3856032,72.9677419 L16.3856032,70.4516129 L3.41079365,70.4516129 C5.95133333,65.3702903 7.3708254,59.7832258 7.56519048,54.0967742 L12.6236984,54.0967742 L12.6236984,51.5806452 L7.6078254,51.5806452 L7.6078254,49.0645161 L17.6395714,49.0645161 L17.6395714,51.5806452 L15.1316349,51.5806452 L15.1316349,54.0967742 L17.6822063,54.0967742 C17.8753175,59.7832258 19.2960635,65.3702903 21.8366032,70.4516129 L18.8935397,70.4516129 L18.8935397,72.9677419 L22.3030794,72.9677419 L21.6760952,75.483871 L3.57130159,75.483871 Z M7.6078254,46.5483871 L17.6395714,46.5483871 L17.6395714,44.0322581 L7.6078254,44.0322581 L7.6078254,46.5483871 Z M3.84592063,39.585 L3.84592063,32.7096774 L8.86179365,32.7096774 L8.86179365,37.7419355 L16.3856032,37.7419355 L16.3856032,32.7096774 L21.4014762,32.7096774 L21.4014762,39.585 L18.5135873,41.516129 L6.73380952,41.516129 L3.84592063,39.585 Z M65.2903651,2.51612903 C69.439746,2.51612903 72.8141746,5.90158065 72.8141746,10.0645161 C72.8141746,14.2274516 69.439746,17.6129032 65.2903651,17.6129032 C61.1409841,17.6129032 57.7665556,14.2274516 57.7665556,10.0645161 C57.7665556,5.90158065 61.1409841,2.51612903 65.2903651,2.51612903 Z M60.2744921,18.7678065 C61.7516667,19.6283226 63.4620794,20.1290323 65.2903651,20.1290323 C67.1186508,20.1290323 68.8290635,19.6283226 70.3062381,18.7678065 L70.3062381,22.6451613 L60.2744921,22.6451613 L60.2744921,18.7678065 Z M77.9140635,47.6215161 L77.6645238,47.1824516 C74.4919841,41.6104839 72.8141746,35.2736129 72.8141746,28.8574839 L72.8141746,25.1612903 L75.3221111,25.1612903 L75.3221111,22.6451613 L72.8141746,22.6451613 L72.8141746,16.6995484 C74.3703492,14.9256774 75.3221111,12.6070645 75.3221111,10.0645161 C75.3221111,4.51519355 70.821619,0 65.2903651,0 C60.0287143,0 55.7087937,4.08745161 55.298746,9.26312903 C50.3041905,6.49287097 44.7014603,5.03225806 38.9570317,5.03225806 C23.5231905,5.03225806 10.2461746,15.3345484 6.28739683,30.1935484 L1.33798413,30.1935484 L1.33798413,40.931129 L5.09988889,43.4472581 L5.09988889,46.5483871 L2.59195238,46.5483871 L2.59195238,49.0645161 L5.09988889,49.0645161 L5.09988889,52.7607097 C5.09988889,59.1780968 3.42207937,65.5149677 0.249539683,71.0856774 L0,71.5247419 L1.61260317,78 L23.6347937,78 L25.2473968,71.5247419 L24.9978571,71.0856774 C24.7094444,70.5786774 24.4461111,70.0578387 24.1827778,69.5395161 C28.7710476,71.778871 33.8044762,72.9677419 38.9570317,72.9677419 C51.7725873,72.9677419 63.5686667,65.5803871 69.2641905,54.0967742 L76.3014603,54.0967742 L77.9140635,47.6215161 Z" id="Fill-1"></path>
                    <path d="M28.9252857,62.9032258 C27.5421587,62.9032258 26.4173492,61.7747419 26.4173492,60.3870968 C26.4173492,58.9994516 27.5421587,57.8709677 28.9252857,57.8709677 C30.3084127,57.8709677 31.4332222,58.9994516 31.4332222,60.3870968 C31.4332222,61.7747419 30.3084127,62.9032258 28.9252857,62.9032258 M38.9570317,61.6451613 C37.2516349,61.6451613 35.55,61.4363226 33.8746984,61.0438065 C33.9035397,60.8274194 33.9411587,60.6122903 33.9411587,60.3870968 C33.9411587,57.6118065 31.6915397,55.3548387 28.9252857,55.3548387 C26.1590317,55.3548387 23.9094127,57.6118065 23.9094127,60.3870968 C23.9094127,63.1623871 26.1590317,65.4193548 28.9252857,65.4193548 C30.5579524,65.4193548 31.996254,64.6217419 32.9129048,63.4064516 C34.9016984,63.9059032 36.9268571,64.1612903 38.9570317,64.1612903 C45.2180952,64.1612903 51.2258571,61.8099677 55.8718095,57.5400968 L54.1764444,55.6844516 C49.9957143,59.5278387 44.5898571,61.6451613 38.9570317,61.6451613" id="Fill-3"></path>
                    <path d="M48.9887778,15.0967742 C50.3719048,15.0967742 51.4967143,16.2252581 51.4967143,17.6129032 C51.4967143,19.0005484 50.3719048,20.1290323 48.9887778,20.1290323 C47.6056508,20.1290323 46.4808413,19.0005484 46.4808413,17.6129032 C46.4808413,16.2252581 47.6056508,15.0967742 48.9887778,15.0967742 M44.0381111,16.9700323 C44.0105238,17.1826452 43.9729048,17.3927419 43.9729048,17.6129032 C43.9729048,20.3881935 46.2225238,22.6451613 48.9887778,22.6451613 C51.7550317,22.6451613 54.0046508,20.3881935 54.0046508,17.6129032 C54.0046508,14.8376129 51.7550317,12.5806452 48.9887778,12.5806452 C47.3485873,12.5806452 45.9027619,13.3858065 44.9873651,14.6111613 C36.618381,12.5240323 28.1553492,14.8350968 22.0485238,20.4611613 L23.7463968,22.3142903 C29.1535079,17.3310968 36.5958095,15.230129 44.0381111,16.9700323" id="Fill-5"></path>
                    <path d="M17.6621429,25.7550968 L19.790127,27.084871 C20.3004921,26.2633548 20.8723016,25.4607097 21.4917619,24.6995806 L19.5493651,23.106871 C18.8634444,23.9510323 18.2276825,24.8417419 17.6621429,25.7550968" id="Fill-7"></path>
                </g>
            </g>
        </g>
    </g>
</svg>