<?xml version="1.0" encoding="UTF-8"?>
<svg width="48px" height="48px" viewBox="0 0 48 48" version="1.1" xmlns="http://www.w3.org/2000/svg" xmlns:xlink="http://www.w3.org/1999/xlink">
    <defs></defs>
    <g id="Page-1" stroke="none" stroke-width="1" fill="none" fill-rule="evenodd">
        <g id="outstuff" transform="translate(-51.000000, -7602.000000)">
            <g id="footer" transform="translate(51.000000, 7602.000000)">
                <g id="to-top">
                    <g>
                        <rect id="Rectangle-8" fill="#9B9B9B" opacity="0.195652174" x="0" y="0" width="48" height="48" rx="3"></rect>
                        <path d="M25.0421847,16.4453745 L32.3443969,22.572658 C32.7700079,22.929788 33.4045448,22.8742732 33.7616748,22.4486622 C34.1200991,22.0215088 34.0684456,21.3855567 33.6457854,21.0218447 L24.8823633,13.4806533 L24.8823633,13.4806533 C24.8710241,13.4708956 24.8595277,13.4614388 24.847884,13.4522823 C24.4842093,13.0748194 23.8850413,13.0384031 23.4774668,13.3803987 L14.3593773,21.0313843 C13.9337663,21.3885143 13.8782515,22.0230512 14.2353815,22.4486622 C14.5925115,22.8742732 15.2270485,22.929788 15.6526595,22.572658 L15.6526595,22.572658 L23,16.4075073 L23,35.9789076 C23,36.5428414 23.4571586,37 24.0210924,37 C24.5850261,37 25.0421847,36.5428414 25.0421847,35.9789076 L25.0421847,35.9789076 L25.0421847,16.4453745 Z" id="Combined-Shape" stroke="#FFFFFF" stroke-width="0.5" fill="#FFFFFF"></path>
                    </g>
                </g>
            </g>
        </g>
    </g>
</svg>