<svg xmlns="http://www.w3.org/2000/svg" xmlns:xlink="http://www.w3.org/1999/xlink" preserveAspectRatio="xMidYMid" width="23" height="23" viewBox="0 0 23 23">
  <defs>
    <style>

      .cls-2 {
        fill: #72777D;
        stroke: #72777D;
        stroke-width: 1px;
      }
    </style>
  </defs>
  <path d="M22.501,22.043 C22.501,22.043 22.043,22.501 22.043,22.501 C22.043,22.501 11.500,11.958 11.500,11.958 C11.500,11.958 0.957,22.501 0.957,22.501 C0.957,22.501 0.499,22.043 0.499,22.043 C0.499,22.043 11.042,11.500 11.042,11.500 C11.042,11.500 0.499,0.957 0.499,0.957 C0.499,0.957 0.957,0.498 0.957,0.498 C0.957,0.498 11.500,11.041 11.500,11.041 C11.500,11.041 22.043,0.498 22.043,0.498 C22.043,0.498 22.501,0.957 22.501,0.957 C22.501,0.957 11.958,11.500 11.958,11.500 C11.958,11.500 22.501,22.043 22.501,22.043 Z" id="path-1" class="cls-2" fill-rule="evenodd"/>
</svg>
